Genre:Comedy
Language:English  http://www.imdb.com/title/tt1666186/
Source:DVD5 RUS/Audio-WORKPRINT.VAMPS
Sample:Yes

General
Complete name :Vampires.Suck.R5.H264.Feel-Free
Format : MPEG-4
Format profile : Base Media
Codec ID : isom
File size : 938 MiB
Duration : 1h 15mn
Overall bit rate : 1 732 Kbps
Video #2
Codec ID : avc1
Codec ID/Info : Advanced Video Coding
Duration : 1h 15mn
Bit rate mode : Variable
Bit rate : 1 565 Kbps
Width : 640 pixels
Height : 352 pixels
Display aspect ratio : 16:9
Frame rate mode : Constant
Frame rate : 23.976 fps
Original frame rate : 23.000 fps
Resolution : 24 bits
Colorimetry : 4:2:0
Scan type : Progressive
Bits/(Pixel*Frame) : 0.290
Stream size : 847 MiB (90%)
Audio #1
ID : 1
Format : AAC
Format/Info : Advanced Audio Codec
Format version : Version 4
Format profile : LC
Format settings, SBR : No
Codec ID : 40
Duration : 1h 15mn
Bit rate mode : Constant
Bit rate : 160 Kbps
Channel(s) : 2 channels
Channel positions : L R
Sampling rate : 48.0 KHz
Resolution : 16 bits
Stream size : 86.6 MiB (9%)

Plot:
spoof of vampire-themed movies, where teenager Becca finds herself torn between two boys. As she and her friends wrestle with a number of different dramas, everything comes to a head at their prom.